<svg width="28" height="28" viewBox="0 0 28 28" fill="none" xmlns="http://www.w3.org/2000/svg">
<path d="M13.9997 10.2083C12.9941 10.2083 12.0296 10.6077 11.3186 11.3188C10.6075 12.0299 10.208 12.9943 10.208 13.9999C10.208 15.0055 10.6075 15.97 11.3186 16.681C12.0296 17.3921 12.9941 17.7916 13.9997 17.7916C15.0053 17.7916 15.9697 17.3921 16.6808 16.681C17.3919 15.97 17.7913 15.0055 17.7913 13.9999C17.7913 12.9943 17.3919 12.0299 16.6808 11.3188C15.9697 10.6077 15.0053 10.2083 13.9997 10.2083Z" fill="#5360C2"/>
<path fill-rule="evenodd" clip-rule="evenodd" d="M7.89872 3.59573C11.9541 3.14648 16.0467 3.14648 20.102 3.59573C22.3175 3.84306 24.1037 5.58723 24.3639 7.81089C24.8445 11.923 24.8445 16.0771 24.3639 20.1892C24.1037 22.4129 22.3175 24.1571 20.1032 24.4056C16.0475 24.8549 11.9545 24.8549 7.89872 24.4056C5.68322 24.1571 3.89705 22.4129 3.63688 20.1904C3.1562 16.0779 3.1562 11.9234 3.63688 7.81089C3.89705 5.58723 5.68322 3.84306 7.89872 3.59573ZM19.8337 7.00006C19.5243 7.00006 19.2275 7.12298 19.0088 7.34177C18.79 7.56056 18.667 7.85731 18.667 8.16673C18.667 8.47615 18.79 8.77289 19.0088 8.99168C19.2275 9.21048 19.5243 9.33339 19.8337 9.33339C20.1431 9.33339 20.4399 9.21048 20.6587 8.99168C20.8775 8.77289 21.0004 8.47615 21.0004 8.16673C21.0004 7.85731 20.8775 7.56056 20.6587 7.34177C20.4399 7.12298 20.1431 7.00006 19.8337 7.00006ZM8.45872 14.0001C8.45872 12.5303 9.04257 11.1208 10.0818 10.0815C11.1211 9.04225 12.5306 8.45839 14.0004 8.45839C15.4701 8.45839 16.8797 9.04225 17.9189 10.0815C18.9582 11.1208 19.542 12.5303 19.542 14.0001C19.542 15.4698 18.9582 16.8793 17.9189 17.9186C16.8797 18.9579 15.4701 19.5417 14.0004 19.5417C12.5306 19.5417 11.1211 18.9579 10.0818 17.9186C9.04257 16.8793 8.45872 15.4698 8.45872 14.0001Z" fill="#5360C2"/>
</svg>
