<svg width="1434" height="2163" viewBox="0 0 1434 2163" fill="none" xmlns="http://www.w3.org/2000/svg">
<line x1="-61" y1="999.12" x2="1450.58" y2="999.12" stroke="#C2BCD1" stroke-opacity="0.7" stroke-width="1.2607"/>
<line x1="-61" y1="367.643" x2="1450.58" y2="367.643" stroke="#C2BCD1" stroke-opacity="0.7" stroke-width="1.2607"/>
<line x1="-61" y1="690.381" x2="1450.58" y2="690.381" stroke="#C2BCD1" stroke-opacity="0.7" stroke-width="1.2607"/>
<line x1="-61" y1="44.9068" x2="1450.58" y2="44.9068" stroke="#C2BCD1" stroke-opacity="0.7" stroke-width="1.2607"/>
<line x1="-61" y1="837.752" x2="1450.58" y2="837.752" stroke="#C2BCD1" stroke-opacity="0.7" stroke-width="1.2607"/>
<line x1="-61" y1="206.274" x2="1450.58" y2="206.274" stroke="#C2BCD1" stroke-opacity="0.7" stroke-width="1.2607"/>
<line x1="-61" y1="529.012" x2="1450.58" y2="529.012" stroke="#C2BCD1" stroke-opacity="0.7" stroke-width="1.2607"/>
<line x1="-61" y1="918.436" x2="1450.58" y2="918.436" stroke="#C2BCD1" stroke-opacity="0.7" stroke-width="1.2607"/>
<line x1="-61" y1="286.959" x2="1450.58" y2="286.96" stroke="#C2BCD1" stroke-opacity="0.7" stroke-width="1.2607"/>
<line x1="-61" y1="609.698" x2="1450.58" y2="609.698" stroke="#C2BCD1" stroke-opacity="0.7" stroke-width="1.2607"/>
<line x1="-61" y1="771.067" x2="1450.58" y2="771.067" stroke="#C2BCD1" stroke-opacity="0.7" stroke-width="1.2607"/>
<line x1="-61" y1="448.329" x2="1450.58" y2="448.329" stroke="#C2BCD1" stroke-opacity="0.7" stroke-width="1.2607"/>
<line x1="631.755" y1="-306.199" x2="631.755" y2="861.207" stroke="#C2BCD1" stroke-opacity="0.7" stroke-width="1.2607"/>
<line x1="309.017" y1="-306.199" x2="309.017" y2="861.207" stroke="#C2BCD1" stroke-opacity="0.7" stroke-width="1.2607"/>
<line x1="954.49" y1="-306.199" x2="954.49" y2="861.207" stroke="#C2BCD1" stroke-opacity="0.7" stroke-width="1.2607"/>
<line x1="1277.23" y1="-306.199" x2="1277.23" y2="861.207" stroke="#C2BCD1" stroke-opacity="0.7" stroke-width="1.2607"/>
<line x1="147.646" y1="-306.199" x2="147.646" y2="861.207" stroke="#C2BCD1" stroke-opacity="0.7" stroke-width="1.2607"/>
<line x1="793.123" y1="-306.199" x2="793.122" y2="861.207" stroke="#C2BCD1" stroke-opacity="0.7" stroke-width="1.2607"/>
<line x1="470.384" y1="-306.199" x2="470.384" y2="861.207" stroke="#C2BCD1" stroke-opacity="0.7" stroke-width="1.2607"/>
<line x1="1115.86" y1="-306.199" x2="1115.86" y2="861.207" stroke="#C2BCD1" stroke-opacity="0.7" stroke-width="1.2607"/>
<line x1="66.9624" y1="-306.199" x2="66.9623" y2="861.207" stroke="#C2BCD1" stroke-opacity="0.7" stroke-width="1.2607"/>
<line x1="712.439" y1="-306.199" x2="712.439" y2="861.207" stroke="#C2BCD1" stroke-opacity="0.7" stroke-width="1.2607"/>
<line x1="389.697" y1="-306.199" x2="389.697" y2="861.207" stroke="#C2BCD1" stroke-opacity="0.7" stroke-width="1.2607"/>
<line x1="1035.18" y1="-306.199" x2="1035.18" y2="861.207" stroke="#C2BCD1" stroke-opacity="0.7" stroke-width="1.2607"/>
<line x1="1357.92" y1="-306.199" x2="1357.92" y2="861.207" stroke="#C2BCD1" stroke-opacity="0.7" stroke-width="1.2607"/>
<line x1="228.333" y1="-306.199" x2="228.333" y2="861.207" stroke="#C2BCD1" stroke-opacity="0.7" stroke-width="1.2607"/>
<line x1="873.81" y1="-306.199" x2="873.81" y2="861.207" stroke="#C2BCD1" stroke-opacity="0.7" stroke-width="1.2607"/>
<line x1="551.068" y1="-306.199" x2="551.068" y2="861.207" stroke="#C2BCD1" stroke-opacity="0.7" stroke-width="1.2607"/>
<line x1="1196.54" y1="-306.199" x2="1196.54" y2="861.207" stroke="#C2BCD1" stroke-opacity="0.7" stroke-width="1.2607"/>
<line x1="-61" y1="1533.64" x2="1450.58" y2="1533.64" stroke="#C2BCD1" stroke-opacity="0.7" stroke-width="1.2607"/>
<line x1="-61" y1="1856.38" x2="1450.58" y2="1856.38" stroke="#C2BCD1" stroke-opacity="0.7" stroke-width="1.2607"/>
<line x1="-61" y1="1210.91" x2="1450.58" y2="1210.91" stroke="#C2BCD1" stroke-opacity="0.7" stroke-width="1.2607"/>
<line x1="-61" y1="2017.75" x2="1450.58" y2="2017.75" stroke="#C2BCD1" stroke-opacity="0.7" stroke-width="1.2607"/>
<line x1="-61" y1="1372.27" x2="1450.58" y2="1372.27" stroke="#C2BCD1" stroke-opacity="0.7" stroke-width="1.2607"/>
<line x1="-61" y1="1695.01" x2="1450.58" y2="1695.01" stroke="#C2BCD1" stroke-opacity="0.7" stroke-width="1.2607"/>
<line x1="-61" y1="1049.54" x2="1450.58" y2="1049.54" stroke="#C2BCD1" stroke-opacity="0.7" stroke-width="1.2607"/>
<line x1="-61" y1="2098.44" x2="1450.58" y2="2098.44" stroke="#C2BCD1" stroke-opacity="0.7" stroke-width="1.2607"/>
<line x1="-61" y1="1452.96" x2="1450.58" y2="1452.96" stroke="#C2BCD1" stroke-opacity="0.7" stroke-width="1.2607"/>
<line x1="-61" y1="1775.7" x2="1450.58" y2="1775.7" stroke="#C2BCD1" stroke-opacity="0.7" stroke-width="1.2607"/>
<line x1="-61" y1="1130.22" x2="1450.58" y2="1130.22" stroke="#C2BCD1" stroke-opacity="0.7" stroke-width="1.2607"/>
<line x1="-61" y1="1937.07" x2="1450.58" y2="1937.07" stroke="#C2BCD1" stroke-opacity="0.7" stroke-width="1.2607"/>
<line x1="-61" y1="1291.59" x2="1450.58" y2="1291.59" stroke="#C2BCD1" stroke-opacity="0.7" stroke-width="1.2607"/>
<line x1="-61" y1="1614.33" x2="1450.58" y2="1614.33" stroke="#C2BCD1" stroke-opacity="0.7" stroke-width="1.2607"/>
<line x1="631.755" y1="859.801" x2="631.755" y2="2027.21" stroke="#C2BCD1" stroke-opacity="0.7" stroke-width="1.2607"/>
<line x1="309.017" y1="859.801" x2="309.017" y2="2027.21" stroke="#C2BCD1" stroke-opacity="0.7" stroke-width="1.2607"/>
<line x1="954.49" y1="859.801" x2="954.49" y2="2027.21" stroke="#C2BCD1" stroke-opacity="0.7" stroke-width="1.2607"/>
<line x1="1277.23" y1="859.801" x2="1277.23" y2="2027.21" stroke="#C2BCD1" stroke-opacity="0.7" stroke-width="1.2607"/>
<line x1="147.646" y1="859.801" x2="147.646" y2="2027.21" stroke="#C2BCD1" stroke-opacity="0.7" stroke-width="1.2607"/>
<line x1="793.123" y1="859.801" x2="793.122" y2="2027.21" stroke="#C2BCD1" stroke-opacity="0.7" stroke-width="1.2607"/>
<line x1="470.384" y1="859.801" x2="470.384" y2="2027.21" stroke="#C2BCD1" stroke-opacity="0.7" stroke-width="1.2607"/>
<line x1="1115.86" y1="859.801" x2="1115.86" y2="2027.21" stroke="#C2BCD1" stroke-opacity="0.7" stroke-width="1.2607"/>
<line x1="66.9624" y1="859.801" x2="66.9623" y2="2027.21" stroke="#C2BCD1" stroke-opacity="0.7" stroke-width="1.2607"/>
<line x1="712.439" y1="859.801" x2="712.439" y2="2027.21" stroke="#C2BCD1" stroke-opacity="0.7" stroke-width="1.2607"/>
<line x1="389.697" y1="859.801" x2="389.697" y2="2027.21" stroke="#C2BCD1" stroke-opacity="0.7" stroke-width="1.2607"/>
<line x1="1035.18" y1="859.801" x2="1035.18" y2="2027.21" stroke="#C2BCD1" stroke-opacity="0.7" stroke-width="1.2607"/>
<line x1="1357.92" y1="859.801" x2="1357.92" y2="2027.21" stroke="#C2BCD1" stroke-opacity="0.7" stroke-width="1.2607"/>
<line x1="228.333" y1="859.801" x2="228.333" y2="2027.21" stroke="#C2BCD1" stroke-opacity="0.7" stroke-width="1.2607"/>
<line x1="873.81" y1="859.801" x2="873.81" y2="2027.21" stroke="#C2BCD1" stroke-opacity="0.7" stroke-width="1.2607"/>
<line x1="551.068" y1="859.801" x2="551.068" y2="2027.21" stroke="#C2BCD1" stroke-opacity="0.7" stroke-width="1.2607"/>
<line x1="1196.54" y1="859.801" x2="1196.54" y2="2027.21" stroke="#C2BCD1" stroke-opacity="0.7" stroke-width="1.2607"/>
</svg>
