<svg width="28" height="28" viewBox="0 0 28 28" fill="none" xmlns="http://www.w3.org/2000/svg">
<path d="M9.33301 13.9998C10.5707 13.9998 11.7577 13.5082 12.6328 12.633C13.508 11.7578 13.9997 10.5708 13.9997 9.33317C13.9997 8.09549 13.508 6.90851 12.6328 6.03334C11.7577 5.15817 10.5707 4.6665 9.33301 4.6665C8.09533 4.6665 6.90835 5.15817 6.03318 6.03334C5.15801 6.90851 4.66634 8.09549 4.66634 9.33317C4.66634 10.5708 5.15801 11.7578 6.03318 12.633C6.90835 13.5082 8.09533 13.9998 9.33301 13.9998ZM19.833 13.9998C20.7613 13.9998 21.6515 13.6311 22.3079 12.9747C22.9643 12.3183 23.333 11.4281 23.333 10.4998C23.333 9.57158 22.9643 8.68134 22.3079 8.02496C21.6515 7.36859 20.7613 6.99984 19.833 6.99984C18.9048 6.99984 18.0145 7.36859 17.3581 8.02496C16.7018 8.68134 16.333 9.57158 16.333 10.4998C16.333 11.4281 16.7018 12.3183 17.3581 12.9747C18.0145 13.6311 18.9048 13.9998 19.833 13.9998ZM4.95801 16.3332C4.26181 16.3332 3.59414 16.6097 3.10185 17.102C2.60957 17.5943 2.33301 18.262 2.33301 18.9582V19.2498C2.33301 19.2498 2.33301 24.4998 9.33301 24.4998C16.333 24.4998 16.333 19.2498 16.333 19.2498V18.9582C16.333 18.262 16.0564 17.5943 15.5642 17.102C15.0719 16.6097 14.4042 16.3332 13.708 16.3332H4.95801ZM19.833 22.7498C18.4668 22.7498 17.4203 22.5387 16.6188 22.2155C17.0854 21.4283 17.3782 20.5504 17.4775 19.6407C17.4889 19.5301 17.4962 19.4192 17.4997 19.3082V18.9582C17.5012 17.9808 17.124 17.0408 16.4473 16.3355L16.5663 16.3332H23.0997C23.7804 16.3332 24.4332 16.6036 24.9146 17.0849C25.3959 17.5663 25.6663 18.2191 25.6663 18.8998C25.6663 18.8998 25.6663 22.7498 19.833 22.7498Z" fill="black"/>
</svg>
