<svg width="26" height="26" viewBox="0 0 26 26" fill="none" xmlns="http://www.w3.org/2000/svg">
<path d="M4.33344 11.9165C4.60955 11.9168 4.87514 12.0225 5.07592 12.2121C5.2767 12.4016 5.39752 12.6607 5.4137 12.9363C5.42989 13.212 5.3402 13.4834 5.16298 13.6952C4.98576 13.9069 4.73437 14.043 4.46019 14.0756L4.33344 14.0832H3.2501C2.97398 14.0829 2.7084 13.9771 2.50762 13.7876C2.30684 13.598 2.18601 13.339 2.16983 13.0633C2.15365 12.7877 2.24333 12.5163 2.42056 12.3045C2.59778 12.0928 2.84916 11.9567 3.12335 11.9241L3.2501 11.9165H4.33344ZM13.0001 2.1665C13.2654 2.16654 13.5216 2.26396 13.7198 2.44028C13.9181 2.6166 14.0448 2.85957 14.0759 3.12309L14.0834 3.24984V4.33317C14.0831 4.60929 13.9774 4.87487 13.7878 5.07565C13.5983 5.27643 13.3392 5.39726 13.0636 5.41344C12.7879 5.42962 12.5165 5.33994 12.3048 5.16272C12.093 4.98549 11.957 4.73411 11.9244 4.45992L11.9168 4.33317V3.24984C11.9168 2.96252 12.0309 2.68697 12.2341 2.4838C12.4372 2.28064 12.7128 2.1665 13.0001 2.1665ZM22.7501 11.9165C23.0262 11.9168 23.2918 12.0225 23.4926 12.2121C23.6934 12.4016 23.8142 12.6607 23.8304 12.9363C23.8465 13.212 23.7569 13.4834 23.5796 13.6952C23.4024 13.9069 23.151 14.043 22.8769 14.0756L22.7501 14.0832H21.6668C21.3906 14.0829 21.1251 13.9771 20.9243 13.7876C20.7235 13.598 20.6027 13.339 20.5865 13.0633C20.5703 12.7877 20.66 12.5163 20.8372 12.3045C21.0144 12.0928 21.2658 11.9567 21.54 11.9241L21.6668 11.9165H22.7501ZM5.30085 5.30059C5.48739 5.11406 5.73559 5.00201 5.99886 4.98546C6.26214 4.9689 6.52241 5.04898 6.73085 5.21067L6.83269 5.30059L7.59102 6.05892C7.78531 6.25387 7.89811 6.51547 7.90652 6.79059C7.91492 7.0657 7.81829 7.33369 7.63625 7.54014C7.45421 7.74658 7.20042 7.876 6.92642 7.9021C6.65242 7.9282 6.37876 7.84903 6.16102 7.68067L6.05918 7.59075L5.30085 6.83242C5.09776 6.62927 4.98367 6.35376 4.98367 6.0665C4.98367 5.77924 5.09776 5.50374 5.30085 5.30059ZM19.1675 5.30059C19.3625 5.10629 19.6241 4.99349 19.8992 4.98509C20.1743 4.97669 20.4423 5.07332 20.6487 5.25536C20.8552 5.43739 20.9846 5.69118 21.0107 5.96518C21.0368 6.23918 20.9576 6.51285 20.7893 6.73059L20.6994 6.83242L19.941 7.59075C19.7461 7.78505 19.4845 7.89785 19.2094 7.90625C18.9342 7.91465 18.6662 7.81802 18.4598 7.63598C18.2534 7.45395 18.1239 7.20016 18.0978 6.92616C18.0717 6.65216 18.1509 6.37849 18.3193 6.16075L18.4092 6.05892L19.1675 5.30059ZM15.1668 19.4998C15.4541 19.4998 15.7296 19.614 15.9328 19.8171C16.136 20.0203 16.2501 20.2959 16.2501 20.5832C16.2501 21.4451 15.9077 22.2718 15.2982 22.8813C14.6887 23.4908 13.8621 23.8332 13.0001 23.8332C12.1381 23.8332 11.3115 23.4908 10.702 22.8813C10.0925 22.2718 9.7501 21.4451 9.7501 20.5832C9.75014 20.3178 9.84755 20.0617 10.0239 19.8634C10.2002 19.6651 10.4432 19.5385 10.7067 19.5074L10.8334 19.4998H15.1668ZM13.0001 6.49984C14.3643 6.49984 15.694 6.92908 16.8007 7.72676C17.9074 8.52445 18.7351 9.65013 19.1665 10.9444C19.598 12.2386 19.6112 13.6357 19.2044 14.9379C18.7977 16.2401 17.9915 17.3813 16.9001 18.1998C16.7508 18.312 16.575 18.3836 16.3899 18.4078L16.2501 18.4165H9.7501C9.5157 18.4165 9.28762 18.3405 9.1001 18.1998C8.00871 17.3813 7.20253 16.2401 6.79576 14.9379C6.38899 13.6357 6.40225 12.2386 6.83366 10.9444C7.26507 9.65013 8.09276 8.52445 9.19948 7.72676C10.3062 6.92908 11.6359 6.49984 13.0001 6.49984Z" fill="black"/>
</svg>
