<svg width="21" height="21" viewBox="0 0 21 21" fill="none" xmlns="http://www.w3.org/2000/svg">
<path d="M15.6765 5.22375C16.5113 6.08091 17.1198 7.1323 17.4471 8.28319H19.6875V12.222H17.4471C17.1202 13.3738 16.5117 14.4262 15.6765 15.2841L16.7987 17.2266L13.3888 19.1953L12.2692 17.2528C11.1084 17.5456 9.89295 17.5456 8.73206 17.2528L7.61119 19.1953L4.20131 17.2266L5.3235 15.2841C4.48831 14.4262 3.87982 13.3738 3.55294 12.222H1.3125V8.2845H3.55294C3.87982 7.13267 4.48831 6.08034 5.3235 5.22244L4.2 3.28125L7.60856 1.3125H7.6125L8.73337 3.25237C9.89426 2.95958 11.1097 2.95958 12.2706 3.25237L13.3875 1.3125H13.3901L16.8 3.28125L15.6778 5.22375H15.6765ZM14.4375 10.2533C14.4375 9.20896 14.0227 8.20744 13.2842 7.46902C12.5458 6.73059 11.5443 6.31575 10.5 6.31575C9.45571 6.31575 8.45419 6.73059 7.71577 7.46902C6.97734 8.20744 6.5625 9.20896 6.5625 10.2533C6.5625 11.2975 6.97734 12.2991 7.71577 13.0375C8.45419 13.7759 9.45571 14.1908 10.5 14.1908C11.5443 14.1908 12.5458 13.7759 13.2842 13.0375C14.0227 12.2991 14.4375 11.2975 14.4375 10.2533Z" fill="black"/>
</svg>
