<svg width="19" height="19" viewBox="0 0 19 19" fill="none" xmlns="http://www.w3.org/2000/svg">
<g clip-path="url(#clip0_3010_762)">
<path fill-rule="evenodd" clip-rule="evenodd" d="M1.86575 9.49983C1.86507 7.80034 2.4315 6.14922 3.47532 4.80805C4.51913 3.46689 5.98063 2.51238 7.62826 2.09576C9.2759 1.67913 11.0154 1.82422 12.5713 2.50804C14.1271 3.19185 15.4103 4.37528 16.2175 5.87083C16.305 6.03227 16.4425 6.16096 16.6093 6.23759C16.7762 6.31422 16.9634 6.33464 17.1428 6.29578C17.3223 6.25692 17.4843 6.16089 17.6045 6.0221C17.7247 5.88332 17.7966 5.70927 17.8095 5.52612C17.9167 3.97083 17.8841 3.05883 17.667 1.45198C17.6521 1.34157 17.6156 1.23517 17.5596 1.13886C17.5036 1.04255 17.4292 0.958215 17.3406 0.890667C17.252 0.823119 17.151 0.773682 17.0433 0.745179C16.9356 0.716676 16.8233 0.709665 16.7129 0.724547C16.6025 0.739429 16.4961 0.775911 16.3998 0.831912C16.3035 0.887912 16.2191 0.962334 16.1516 1.05093C16.084 1.13952 16.0346 1.24055 16.0061 1.34825C15.9776 1.45595 15.9706 1.56821 15.9855 1.67862C16.0493 2.15362 16.0968 2.55669 16.1266 2.93262C14.8252 1.619 13.1628 0.721701 11.3505 0.354633C9.53816 -0.0124357 7.65763 0.167282 5.94764 0.87097C4.23764 1.57466 2.7753 2.77058 1.74625 4.30692C0.717205 5.84325 0.167864 7.65071 0.167969 9.49983C0.167969 9.72479 0.257334 9.94054 0.416405 10.0996C0.575476 10.2587 0.791223 10.348 1.01618 10.348C1.24114 10.348 1.45689 10.2587 1.61596 10.0996C1.77503 9.94054 1.8644 9.72479 1.8644 9.49983M18.8287 9.49983C18.8287 9.27487 18.7393 9.05913 18.5802 8.90005C18.4212 8.74098 18.2054 8.65162 17.9805 8.65162C17.7555 8.65162 17.5398 8.74098 17.3807 8.90005C17.2216 9.05913 17.1323 9.27487 17.1323 9.49983C17.1325 11.1955 16.5681 12.8429 15.5282 14.1823C14.4884 15.5217 13.0322 16.4767 11.3894 16.8967C9.74655 17.3168 8.01065 17.1779 6.45552 16.502C4.90039 15.8262 3.61454 14.6518 2.80083 13.1641C2.71285 13.0031 2.57505 12.875 2.40809 12.7989C2.24113 12.7229 2.05401 12.703 1.8748 12.7423C1.6956 12.7816 1.53396 12.878 1.41415 13.0169C1.29433 13.1558 1.22279 13.3299 1.21025 13.5129C1.10304 15.0682 1.13561 15.9802 1.35275 17.587C1.38984 17.8036 1.50954 17.9974 1.68664 18.1275C1.86374 18.2576 2.08442 18.3139 2.3022 18.2845C2.51997 18.2551 2.71785 18.1424 2.85415 17.97C2.99045 17.7976 3.05453 17.5791 3.0329 17.3604C2.97362 16.9375 2.92611 16.513 2.8904 16.0874C4.19405 17.3957 5.85666 18.2877 7.66764 18.6503C9.47862 19.013 11.3565 18.83 13.0634 18.1246C14.7703 17.4191 16.2295 16.223 17.256 14.6876C18.2826 13.1523 18.8304 11.3468 18.83 9.49983M6.8424 4.74712C6.09597 5.11762 5.4174 5.62112 4.63161 6.31598C4.51208 6.41124 4.42178 6.53823 4.37104 6.6824C3.76983 8.33405 3.77118 10.2666 4.23668 11.8938C4.35747 12.3132 4.60583 12.6674 4.91797 12.9266C6.36468 14.1345 7.40697 14.6054 9.03283 14.961C9.09344 14.9736 9.15497 14.984 9.2174 14.9922C9.40038 15.0575 9.60034 15.0575 9.78333 14.9922C9.84485 14.9831 9.90637 14.9727 9.9679 14.961C11.5938 14.6054 12.636 14.1345 14.0828 12.9266C14.3949 12.666 14.6433 12.3132 14.764 11.8938C15.2268 10.2761 15.2309 8.35712 14.6392 6.7109C14.5941 6.56619 14.5095 6.43693 14.3949 6.33769C13.5996 5.63198 12.9143 5.12169 12.1597 4.74712C11.401 4.36983 10.618 4.14998 9.65575 3.97355C9.55356 3.95377 9.44852 3.95377 9.34633 3.97355C8.38275 4.14998 7.60104 4.36983 6.8424 4.74712ZM10.3493 13.118C11.2993 12.8411 12.005 12.453 12.9957 11.6251C13.0605 11.5741 13.1083 11.5045 13.1328 11.4256C13.429 10.3742 13.4819 9.26916 13.2875 8.19426L10.3479 9.66269L10.3493 13.118ZM8.65147 9.66269L5.7119 8.1929C5.51723 9.26824 5.57014 10.3738 5.86661 11.4256C5.88561 11.4908 5.92904 11.5613 6.00233 11.6251C6.9944 12.453 7.70147 12.8411 8.65147 13.118V9.66269Z" fill="black"/>
</g>
<defs>
<clipPath id="clip0_3010_762">
<rect width="19" height="19" fill="white"/>
</clipPath>
</defs>
</svg>
