<svg width="18" height="18" viewBox="0 0 18 18" fill="none" xmlns="http://www.w3.org/2000/svg">
<path d="M9.71024 2.6846C9.92981 2.4651 10.2276 2.3418 10.538 2.3418C10.8485 2.3418 11.1462 2.4651 11.3658 2.6846L16.6346 7.95335C16.854 8.17291 16.9774 8.47067 16.9774 8.78113C16.9774 9.09159 16.854 9.38935 16.6346 9.60891L11.3658 14.8777C11.145 15.0909 10.8492 15.2089 10.5422 15.2063C10.2352 15.2036 9.94159 15.0805 9.7245 14.8634C9.50742 14.6463 9.38429 14.3527 9.38162 14.0457C9.37895 13.7387 9.49697 13.4429 9.71024 13.2221L12.8797 9.95196H1.75677C1.44625 9.95196 1.14844 9.82861 0.928867 9.60903C0.709293 9.38946 0.585938 9.09165 0.585938 8.78113C0.585938 8.47061 0.709293 8.1728 0.928867 7.95323C1.14844 7.73365 1.44625 7.6103 1.75677 7.6103H12.8797L9.71024 4.34016C9.49074 4.1206 9.36744 3.82284 9.36744 3.51238C9.36744 3.20192 9.49074 2.90416 9.71024 2.6846Z" fill="white"/>
</svg>
