<svg width="17" height="13" viewBox="0 0 17 13" fill="none" xmlns="http://www.w3.org/2000/svg">
<path d="M9.1243 0.342804C9.34387 0.123307 9.64162 0 9.95208 0C10.2625 0 10.5603 0.123307 10.7799 0.342804L16.0486 5.61155C16.2681 5.83112 16.3914 6.12887 16.3914 6.43933C16.3914 6.7498 16.2681 7.04755 16.0486 7.26711L10.7799 12.5359C10.559 12.7491 10.2633 12.8672 9.9563 12.8645C9.64931 12.8618 9.35565 12.7387 9.13857 12.5216C8.92148 12.3045 8.79835 12.0109 8.79568 11.7039C8.79301 11.3969 8.91103 11.1011 9.1243 10.8803L12.2937 7.61017H1.17083C0.860309 7.61017 0.562503 7.48681 0.342929 7.26724C0.123355 7.04766 0 6.74986 0 6.43933C0 6.12881 0.123355 5.831 0.342929 5.61143C0.562503 5.39186 0.860309 5.2685 1.17083 5.2685H12.2937L9.1243 1.99836C8.90481 1.7788 8.7815 1.48105 8.7815 1.17058C8.7815 0.86012 8.90481 0.562368 9.1243 0.342804Z" fill="white"/>
</svg>
