<svg width="15" height="15" viewBox="0 0 15 15" fill="none" xmlns="http://www.w3.org/2000/svg">
<path d="M6.4362 0.572603C6.79749 -0.189679 7.8822 -0.189679 8.24349 0.572603L9.68749 3.61929C9.83326 3.92686 10.1255 4.13917 10.463 4.18277L13.8068 4.61462C14.6435 4.72266 14.9786 5.75428 14.3653 6.33345L11.914 8.64825C11.6665 8.88194 11.5549 9.22546 11.6177 9.55997L12.2403 12.8736C12.3961 13.7026 11.5185 14.3402 10.7782 13.9359L7.81916 12.3198C7.52044 12.1566 7.15925 12.1566 6.86052 12.3198L3.9015 13.9359C3.16115 14.3402 2.28361 13.7026 2.43938 12.8736L3.06195 9.55997C3.12481 9.22546 3.01319 8.88194 2.76572 8.64825L0.314367 6.33345C-0.298962 5.75428 0.0362306 4.72266 0.872849 4.61462L4.21664 4.18277C4.55421 4.13917 4.84642 3.92687 4.9922 3.61929L6.4362 0.572603Z" fill="#FBBC05"/>
</svg>
