<svg width="153" height="38" viewBox="0 0 153 38" fill="none" xmlns="http://www.w3.org/2000/svg">
<path d="M24.6091 19.0252C25.8577 17.9796 26.6517 16.4091 26.6517 14.6531C26.6517 12.8972 25.8577 11.3267 24.6091 10.2811C24.7522 10.2118 24.8899 10.1366 25.0211 10.0551C25.8493 9.54014 26.8268 9.24274 27.8738 9.24274C30.8619 9.24274 33.2842 11.6651 33.2842 14.6531C33.2842 17.6412 30.8619 20.0635 27.8738 20.0635C26.8268 20.0635 25.8493 19.7661 25.0211 19.2512C24.8899 19.1697 24.7522 19.0945 24.6091 19.0252Z" fill="url(#paint0_linear_2103_976)"/>
<path d="M23.1065 15.5049C23.665 13.9751 23.5674 12.218 22.6894 10.6973C21.8114 9.17663 20.3385 8.21354 18.7344 7.93233C18.8237 7.8008 18.9053 7.66681 18.9781 7.53063C19.4379 6.67058 20.1358 5.92425 21.0425 5.40075C23.6303 3.90671 26.9393 4.79334 28.4333 7.38109C29.9273 9.96885 29.0407 13.2778 26.4529 14.7718C25.5462 15.2953 24.5509 15.5265 23.5762 15.4947C23.4219 15.4896 23.265 15.4934 23.1065 15.5049Z" fill="url(#paint1_linear_2103_976)"/>
<path d="M20.0448 13.2075C19.7636 11.6034 18.8005 10.1305 17.2798 9.25255C15.7591 8.37457 14.002 8.27697 12.4722 8.83548C12.4838 8.67694 12.4875 8.52007 12.4824 8.36575C12.4506 7.39102 12.6818 6.39574 13.2053 5.489C14.6994 2.90125 18.0083 2.01462 20.5961 3.50866C23.1838 5.0027 24.0705 8.31165 22.5764 10.8994C22.0529 11.8061 21.3066 12.504 20.4465 12.9638C20.3104 13.0366 20.1764 13.1182 20.0448 13.2075Z" fill="url(#paint2_linear_2103_976)"/>
<path d="M16.2442 12.7488C15.1986 11.5002 13.6281 10.7062 11.8721 10.7062C10.1161 10.7062 8.54561 11.5002 7.50002 12.7488C7.43076 12.6057 7.35554 12.468 7.27401 12.3368C6.75907 11.5086 6.46167 10.5311 6.46167 9.48408C6.46167 6.49599 8.88399 4.07367 11.8721 4.07367C14.8602 4.07367 17.2825 6.49599 17.2825 9.48408C17.2825 10.5311 16.9851 11.5086 16.4702 12.3368C16.3886 12.468 16.3134 12.6057 16.2442 12.7488Z" fill="url(#paint3_linear_2103_976)"/>
<path d="M12.7231 14.2516C11.1933 13.6931 9.43613 13.7907 7.91542 14.6686C6.39471 15.5466 5.43162 17.0195 5.15042 18.6236C5.01889 18.5343 4.88489 18.4527 4.74871 18.3799C3.88866 17.9201 3.14233 17.2222 2.61883 16.3155C1.12478 13.7277 2.01141 10.4188 4.59917 8.92474C7.18693 7.43069 10.4959 8.31732 11.99 10.9051C12.5135 11.8118 12.7447 12.8071 12.7128 13.7818C12.7078 13.9361 12.7115 14.093 12.7231 14.2516Z" fill="url(#paint4_linear_2103_976)"/>
<path d="M10.4247 17.3136C8.82056 17.5948 7.34767 18.5579 6.46969 20.0786C5.59171 21.5993 5.49411 23.3564 6.05263 24.8862C5.89407 24.8746 5.73718 24.8709 5.58284 24.8759C4.60812 24.9078 3.61284 24.6766 2.70611 24.1531C0.118349 22.659 -0.768282 19.3501 0.72576 16.7623C2.2198 14.1746 5.52875 13.2879 8.11651 14.782C9.02324 15.3055 9.72111 16.0518 10.1809 16.9118C10.2537 17.048 10.3354 17.182 10.4247 17.3136Z" fill="url(#paint5_linear_2103_976)"/>
<path d="M9.96515 21.1144C8.71655 22.16 7.92252 23.7305 7.92252 25.4864C7.92252 27.2424 8.71655 28.8129 9.96515 29.8585C9.82206 29.9277 9.68434 30.003 9.5532 30.0845C8.72499 30.5994 7.74745 30.8968 6.70044 30.8968C3.71236 30.8968 1.29004 28.4745 1.29004 25.4864C1.29004 22.4983 3.71236 20.076 6.70044 20.076C7.74745 20.076 8.72499 20.3734 9.5532 20.8884C9.68434 20.9699 9.82206 21.0451 9.96515 21.1144Z" fill="url(#paint6_linear_2103_976)"/>
<path d="M11.4674 24.6356C10.9088 26.1654 11.0064 27.9225 11.8844 29.4432C12.7624 30.964 14.2353 31.927 15.8394 32.2082C15.7501 32.3398 15.6685 32.4738 15.5957 32.61C15.1359 33.47 14.438 34.2163 13.5313 34.7398C10.9435 36.2339 7.6346 35.3472 6.14056 32.7595C4.64651 30.1717 5.53315 26.8628 8.1209 25.3687C9.02764 24.8452 10.0229 24.614 10.9976 24.6459C11.1519 24.6509 11.3088 24.6472 11.4674 24.6356Z" fill="url(#paint7_linear_2103_976)"/>
<path d="M14.5293 26.934C14.8105 28.5381 15.7736 30.011 17.2943 30.8889C18.815 31.7669 20.5722 31.8645 22.102 31.306C22.0904 31.4646 22.0867 31.6214 22.0917 31.7758C22.1236 32.7505 21.8924 33.7458 21.3689 34.6525C19.8748 37.2403 16.5659 38.1269 13.9781 36.6328C11.3903 35.1388 10.5037 31.8299 11.9978 29.2421C12.5213 28.3354 13.2676 27.6375 14.1276 27.1777C14.2638 27.1049 14.3978 27.0232 14.5293 26.934Z" fill="url(#paint8_linear_2103_976)"/>
<path d="M18.33 27.3936C19.3756 28.6422 20.9461 29.4362 22.7021 29.4362C24.4581 29.4362 26.0286 28.6422 27.0742 27.3936C27.1434 27.5367 27.2186 27.6744 27.3002 27.8055C27.8151 28.6337 28.1125 29.6113 28.1125 30.6583C28.1125 33.6464 25.6902 36.0687 22.7021 36.0687C19.714 36.0687 17.2917 33.6464 17.2917 30.6583C17.2917 29.6113 17.5891 28.6337 18.104 27.8055C18.1856 27.6744 18.2608 27.5367 18.33 27.3936Z" fill="url(#paint9_linear_2103_976)"/>
<path d="M21.8513 25.8913C23.3811 26.4498 25.1382 26.3522 26.6589 25.4743C28.1796 24.5963 29.1427 23.1234 29.4239 21.5193C29.5554 21.6085 29.6894 21.6902 29.8256 21.763C30.6857 22.2228 31.432 22.9207 31.9555 23.8274C33.4496 26.4152 32.5629 29.7241 29.9752 31.2182C27.3874 32.7122 24.0785 31.8256 22.5844 29.2378C22.0609 28.3311 21.8297 27.3358 21.8615 26.3611C21.8666 26.2068 21.8629 26.0499 21.8513 25.8913Z" fill="url(#paint10_linear_2103_976)"/>
<path d="M28.1081 20.0586C28.107 20.0605 28.1059 20.0624 28.1048 20.0643C27.2269 21.585 25.754 22.5481 24.1499 22.8293C24.2391 22.9609 24.3208 23.0949 24.3936 23.231C24.8534 24.0911 25.5513 24.8374 26.458 25.3609C29.0458 26.855 32.3547 25.9683 33.8488 23.3806C35.1296 21.162 34.6607 18.4134 32.8702 16.7328C32.0836 18.6205 30.2583 19.967 28.1081 20.0586Z" fill="url(#paint11_linear_2103_976)"/>
<path d="M47.2604 9.84101V26H43.6792V9.84101H47.2604ZM44.2469 26L44.3124 22.8337H53.5929V26H44.2469ZM54.1534 20.519C54.1534 19.369 54.3936 18.3645 54.874 17.5056C55.3544 16.6321 56.0313 15.9552 56.9048 15.4748C57.7782 14.9944 58.7972 14.7542 59.9619 14.7542C61.1265 14.7542 62.1382 14.9944 62.9971 15.4748C63.8706 15.9552 64.5475 16.6321 65.0279 17.5056C65.5083 18.3645 65.7485 19.369 65.7485 20.519C65.7485 21.6691 65.5083 22.6736 65.0279 23.5325C64.5475 24.3914 63.8706 25.061 62.9971 25.5414C62.1382 26.0218 61.1265 26.262 59.9619 26.262C58.7972 26.262 57.7782 26.0218 56.9048 25.5414C56.0313 25.061 55.3544 24.3914 54.874 23.5325C54.3936 22.6736 54.1534 21.6691 54.1534 20.519ZM57.538 20.4972C57.538 21.0504 57.6399 21.5381 57.8437 21.9603C58.0475 22.3679 58.3314 22.6881 58.6953 22.9211C59.0593 23.1394 59.4815 23.2486 59.9619 23.2486C60.4423 23.2486 60.8644 23.1394 61.2284 22.9211C61.5923 22.6881 61.8689 22.3679 62.0582 21.9603C62.262 21.5381 62.3639 21.0504 62.3639 20.4972C62.3639 19.944 62.262 19.4636 62.0582 19.056C61.8689 18.6484 61.5923 18.3354 61.2284 18.117C60.8644 17.8841 60.4423 17.7676 59.9619 17.7676C59.4815 17.7676 59.0593 17.8841 58.6953 18.117C58.3314 18.3354 58.0475 18.6484 57.8437 19.056C57.6399 19.4636 57.538 19.944 57.538 20.4972ZM66.5079 20.3444C66.5079 19.2234 66.7335 18.2408 67.1848 17.3964C67.6361 16.5521 68.2548 15.897 69.0409 15.4311C69.827 14.9507 70.7296 14.7105 71.7486 14.7105C72.6075 14.7105 73.3645 14.8852 74.0196 15.2346C74.6893 15.584 75.1405 16.0426 75.3735 16.6103L75.0459 16.8287L75.308 15.0818H78.3432V25.3012C78.3432 26.5823 78.0957 27.6887 77.6008 28.6204C77.1058 29.5666 76.3998 30.2945 75.4826 30.804C74.5801 31.3135 73.5028 31.5683 72.2508 31.5683C71.2027 31.5683 70.2565 31.3572 69.4121 30.935C68.5823 30.5274 67.9054 29.9451 67.3813 29.1881C66.8718 28.4311 66.5661 27.5577 66.4642 26.5677H69.8707C69.8998 27.1937 70.1473 27.6741 70.6131 28.009C71.0935 28.3438 71.7049 28.5112 72.4474 28.5112C73.2772 28.5112 73.9177 28.2783 74.369 27.8124C74.8203 27.3611 75.0459 26.757 75.0459 26V23.6853L75.3516 23.9692C75.1187 24.537 74.6674 24.9955 73.9978 25.3449C73.3281 25.6943 72.5566 25.869 71.6831 25.869C70.6786 25.869 69.7833 25.6361 68.9972 25.1702C68.2257 24.7044 67.6142 24.0566 67.1629 23.2268C66.7262 22.397 66.5079 21.4362 66.5079 20.3444ZM69.9143 20.257C69.9143 20.7811 70.0235 21.2469 70.2419 21.6545C70.4603 22.0622 70.7514 22.3824 71.1154 22.6153C71.4793 22.8337 71.8796 22.9429 72.3164 22.9429C72.8404 22.9429 73.299 22.8337 73.6921 22.6153C74.0997 22.3824 74.4127 22.0622 74.631 21.6545C74.8639 21.2469 74.9804 20.7811 74.9804 20.257C74.9804 19.7184 74.8639 19.2598 74.631 18.8813C74.3981 18.4883 74.0778 18.1825 73.6702 17.9642C73.2772 17.7458 72.8186 17.6366 72.2945 17.6366C71.8578 17.6366 71.4575 17.7458 71.0935 17.9642C70.7296 18.1825 70.4384 18.4883 70.2201 18.8813C70.0162 19.2744 69.9143 19.7329 69.9143 20.257ZM79.5417 20.519C79.5417 19.369 79.7819 18.3645 80.2623 17.5056C80.7427 16.6321 81.4196 15.9552 82.2931 15.4748C83.1665 14.9944 84.1856 14.7542 85.3502 14.7542C86.5148 14.7542 87.5265 14.9944 88.3855 15.4748C89.2589 15.9552 89.9358 16.6321 90.4162 17.5056C90.8966 18.3645 91.1368 19.369 91.1368 20.519C91.1368 21.6691 90.8966 22.6736 90.4162 23.5325C89.9358 24.3914 89.2589 25.061 88.3855 25.5414C87.5265 26.0218 86.5148 26.262 85.3502 26.262C84.1856 26.262 83.1665 26.0218 82.2931 25.5414C81.4196 25.061 80.7427 24.3914 80.2623 23.5325C79.7819 22.6736 79.5417 21.6691 79.5417 20.519ZM82.9263 20.4972C82.9263 21.0504 83.0282 21.5381 83.232 21.9603C83.4358 22.3679 83.7197 22.6881 84.0837 22.9211C84.4476 23.1394 84.8698 23.2486 85.3502 23.2486C85.8306 23.2486 86.2528 23.1394 86.6167 22.9211C86.9806 22.6881 87.2572 22.3679 87.4465 21.9603C87.6503 21.5381 87.7522 21.0504 87.7522 20.4972C87.7522 19.944 87.6503 19.4636 87.4465 19.056C87.2572 18.6484 86.9806 18.3354 86.6167 18.117C86.2528 17.8841 85.8306 17.7676 85.3502 17.7676C84.8698 17.7676 84.4476 17.8841 84.0837 18.117C83.7197 18.3354 83.4358 18.6484 83.232 19.056C83.0282 19.4636 82.9263 19.944 82.9263 20.4972ZM92.5513 26V15.0818H95.9359V26H92.5513ZM94.2545 13.3785C93.7159 13.3785 93.2573 13.1965 92.8788 12.8326C92.5149 12.4541 92.3329 11.9955 92.3329 11.4569C92.3329 10.9183 92.5149 10.467 92.8788 10.103C93.2573 9.7391 93.7159 9.55713 94.2545 9.55713C94.7786 9.55713 95.2226 9.7391 95.5865 10.103C95.965 10.467 96.1543 10.9183 96.1543 11.4569C96.1543 11.9955 95.965 12.4541 95.5865 12.8326C95.2226 13.1965 94.7786 13.3785 94.2545 13.3785ZM98.1245 31.2408V15.0818H101.204L101.378 16.4138C101.684 15.9043 102.172 15.4967 102.841 15.1909C103.511 14.8852 104.232 14.7324 105.003 14.7324C106.022 14.7324 106.91 14.958 107.667 15.4093C108.424 15.8606 109.021 16.5084 109.458 17.3528C109.894 18.1825 110.127 19.187 110.157 20.3662C110.186 21.5162 109.996 22.5426 109.589 23.4451C109.181 24.3331 108.592 25.0319 107.82 25.5414C107.048 26.051 106.117 26.3057 105.025 26.3057C104.268 26.3057 103.562 26.1747 102.907 25.9127C102.252 25.6506 101.764 25.3158 101.444 24.9082V31.2408H98.1245ZM101.509 20.5409C101.509 21.0795 101.618 21.5599 101.837 21.9821C102.07 22.3897 102.383 22.71 102.776 22.9429C103.183 23.1613 103.649 23.2704 104.173 23.2704C104.712 23.2704 105.171 23.154 105.549 22.9211C105.942 22.6881 106.241 22.3679 106.444 21.9603C106.663 21.5526 106.772 21.0795 106.772 20.5409C106.772 20.0022 106.663 19.5291 106.444 19.1215C106.241 18.7139 105.942 18.3936 105.549 18.1607C105.171 17.9278 104.712 17.8113 104.173 17.8113C103.649 17.8113 103.183 17.9278 102.776 18.1607C102.383 18.3791 102.07 18.6921 101.837 19.0997C101.618 19.5073 101.509 19.9877 101.509 20.5409ZM110.733 22.5498H113.769C113.769 22.9283 113.892 23.2268 114.14 23.4451C114.402 23.6635 114.78 23.7727 115.275 23.7727C115.566 23.7727 115.807 23.7363 115.996 23.6635C116.2 23.5907 116.353 23.4888 116.454 23.3578C116.571 23.2122 116.629 23.0521 116.629 22.8774C116.629 22.6881 116.564 22.528 116.433 22.397C116.316 22.266 116.112 22.1641 115.821 22.0913L113.9 21.589C112.822 21.2979 112.058 20.8684 111.607 20.3007C111.155 19.7329 110.93 19.0851 110.93 18.3572C110.93 17.6293 111.112 16.9961 111.476 16.4575C111.854 15.9043 112.364 15.4821 113.004 15.1909C113.645 14.8852 114.365 14.7324 115.166 14.7324C116.374 14.7324 117.364 15.0672 118.136 15.7369C118.922 16.3919 119.337 17.2872 119.381 18.4227H116.345C116.36 18.0442 116.251 17.7458 116.018 17.5274C115.785 17.2945 115.479 17.1781 115.101 17.1781C114.766 17.1781 114.489 17.2654 114.271 17.4401C114.067 17.6002 113.965 17.8259 113.965 18.117C113.965 18.3936 114.067 18.5974 114.271 18.7285C114.475 18.8449 114.751 18.9468 115.101 19.0342L117.044 19.5146C117.947 19.7329 118.631 20.1042 119.097 20.6282C119.563 21.1523 119.795 21.822 119.795 22.6372C119.795 23.7581 119.381 24.6461 118.551 25.3012C117.721 25.9563 116.644 26.2839 115.319 26.2839C113.951 26.2839 112.851 25.9418 112.022 25.2576C111.206 24.5588 110.777 23.6562 110.733 22.5498ZM125.161 26.2839C123.88 26.2839 122.89 25.8835 122.191 25.0829C121.493 24.2822 121.143 23.234 121.143 21.9384V15.0818H124.506V20.7156C124.506 21.7346 124.688 22.4188 125.052 22.7682C125.416 23.1176 125.896 23.2923 126.493 23.2923C127.265 23.2923 127.796 23.0739 128.087 22.6372C128.378 22.2005 128.524 21.5745 128.524 20.7592V15.0818H131.887V26H128.721L128.502 24.7772C128.167 25.2284 127.694 25.5924 127.083 25.869C126.471 26.1456 125.831 26.2839 125.161 26.2839ZM137.438 26H134.053V15.0818H137.198L137.438 16.9597L137.067 16.5666C137.358 16.0134 137.795 15.5694 138.377 15.2346C138.974 14.8852 139.614 14.7105 140.299 14.7105C141.376 14.7105 142.22 14.9507 142.832 15.4311C143.458 15.9115 143.909 16.5448 144.185 17.3309H143.661C143.836 16.5448 144.258 15.9115 144.928 15.4311C145.598 14.9507 146.398 14.7105 147.33 14.7105C148.742 14.7105 149.783 15.089 150.453 15.846C151.122 16.603 151.457 17.6075 151.457 18.8595V26H148.182V19.6893C148.182 19.005 148.014 18.4955 147.679 18.1607C147.359 17.8259 146.93 17.6585 146.391 17.6585C146.071 17.6585 145.765 17.7313 145.474 17.8768C145.183 18.0078 144.942 18.248 144.753 18.5974C144.564 18.9323 144.469 19.4127 144.469 20.0386V26H141.15V19.6893C141.15 19.005 140.99 18.5028 140.67 18.1825C140.349 17.8477 139.92 17.6803 139.381 17.6803C139.061 17.6803 138.748 17.7531 138.442 17.8987C138.151 18.0297 137.911 18.2699 137.722 18.6193C137.533 18.9541 137.438 19.4272 137.438 20.0386V26Z" fill="#1B3D5B"/>
<defs>
<linearGradient id="paint0_linear_2103_976" x1="25.2865" y1="9.24274" x2="25.2865" y2="20.0635" gradientUnits="userSpaceOnUse">
<stop stop-color="#25136D"/>
<stop offset="1" stop-color="#3D9BA2"/>
</linearGradient>
<linearGradient id="paint1_linear_2103_976" x1="18.8019" y1="6.69438" x2="24.2123" y2="16.0655" gradientUnits="userSpaceOnUse">
<stop stop-color="#25136D"/>
<stop offset="1" stop-color="#3D9BA2"/>
</linearGradient>
<linearGradient id="paint2_linear_2103_976" x1="11.9117" y1="7.72965" x2="21.2828" y2="13.14" gradientUnits="userSpaceOnUse">
<stop stop-color="#25136D"/>
<stop offset="1" stop-color="#3D9BA2"/>
</linearGradient>
<linearGradient id="paint3_linear_2103_976" x1="6.46167" y1="12.0713" x2="17.2825" y2="12.0713" gradientUnits="userSpaceOnUse">
<stop stop-color="#25136D"/>
<stop offset="1" stop-color="#3D9BA2"/>
</linearGradient>
<linearGradient id="paint4_linear_2103_976" x1="3.91247" y1="18.5561" x2="13.2836" y2="13.1457" gradientUnits="userSpaceOnUse">
<stop stop-color="#25136D"/>
<stop offset="1" stop-color="#3D9BA2"/>
</linearGradient>
<linearGradient id="paint5_linear_2103_976" x1="4.94677" y1="25.4467" x2="10.3572" y2="16.0756" gradientUnits="userSpaceOnUse">
<stop stop-color="#25136D"/>
<stop offset="1" stop-color="#3D9BA2"/>
</linearGradient>
<linearGradient id="paint6_linear_2103_976" x1="9.28772" y1="30.8968" x2="9.28772" y2="20.076" gradientUnits="userSpaceOnUse">
<stop stop-color="#25136D"/>
<stop offset="1" stop-color="#3D9BA2"/>
</linearGradient>
<linearGradient id="paint7_linear_2103_976" x1="15.7719" y1="33.4462" x2="10.3615" y2="24.0751" gradientUnits="userSpaceOnUse">
<stop stop-color="#25136D"/>
<stop offset="1" stop-color="#3D9BA2"/>
</linearGradient>
<linearGradient id="paint8_linear_2103_976" x1="22.6625" y1="32.4119" x2="13.2914" y2="27.0014" gradientUnits="userSpaceOnUse">
<stop stop-color="#25136D"/>
<stop offset="1" stop-color="#3D9BA2"/>
</linearGradient>
<linearGradient id="paint9_linear_2103_976" x1="28.1125" y1="28.071" x2="17.2917" y2="28.071" gradientUnits="userSpaceOnUse">
<stop stop-color="#25136D"/>
<stop offset="1" stop-color="#3D9BA2"/>
</linearGradient>
<linearGradient id="paint10_linear_2103_976" x1="30.6619" y1="21.5868" x2="21.2908" y2="26.9972" gradientUnits="userSpaceOnUse">
<stop stop-color="#25136D"/>
<stop offset="1" stop-color="#3D9BA2"/>
</linearGradient>
<linearGradient id="paint11_linear_2103_976" x1="29.6278" y1="14.6962" x2="24.2174" y2="24.0673" gradientUnits="userSpaceOnUse">
<stop stop-color="#25136D"/>
<stop offset="1" stop-color="#3D9BA2"/>
</linearGradient>
</defs>
</svg>
