<svg width="41" height="41" viewBox="0 0 41 41" fill="none" xmlns="http://www.w3.org/2000/svg">
<path d="M20.5007 2.98926C17.0374 2.98926 13.652 4.01623 10.7724 5.9403C7.89282 7.86436 5.64847 10.5991 4.32314 13.7987C2.99782 16.9983 2.65106 20.5191 3.3267 23.9158C4.00234 27.3125 5.67005 30.4325 8.11892 32.8814C10.5678 35.3303 13.6879 36.998 17.0845 37.6736C20.4812 38.3493 24.002 38.0025 27.2016 36.6772C30.4012 35.3519 33.136 33.1075 35.06 30.2279C36.9841 27.3484 38.0111 23.9629 38.0111 20.4997C38.0066 15.857 36.1603 11.4058 32.8774 8.12294C29.5945 4.84008 25.1433 2.99378 20.5007 2.98926ZM21.7819 30.3226V31.6722C21.7819 32.012 21.6469 32.3379 21.4066 32.5782C21.1664 32.8184 20.8405 32.9534 20.5007 32.9534C20.1609 32.9534 19.835 32.8184 19.5947 32.5782C19.3544 32.3379 19.2194 32.012 19.2194 31.6722V30.3226C18.1061 30.1562 17.0633 29.6762 16.2127 28.9388C15.6056 28.4299 15.1057 27.8053 14.7421 27.1015C14.3784 26.3976 14.1583 25.6285 14.0944 24.8388C14.0728 24.5864 14.1265 24.3333 14.2487 24.1114C14.3709 23.8895 14.5562 23.7088 14.781 23.5921C15.0059 23.4755 15.2603 23.4281 15.5121 23.456C15.7639 23.4839 16.0018 23.5859 16.1957 23.7489C16.4572 23.9666 16.6228 24.2782 16.6569 24.6168C16.6896 25.0737 16.8138 25.5193 17.0222 25.9273C17.2305 26.3352 17.5188 26.6971 17.8698 26.9913C18.5758 27.5948 19.4882 27.901 20.4152 27.8455C23.0802 27.8455 24.3444 26.8205 24.3444 24.7363C24.3444 23.3526 23.1315 21.8663 20.5007 21.8663C14.9315 21.8663 14.0944 18.4497 14.0944 16.4851C14.1399 15.26 14.561 14.0784 15.3005 13.1006C16.04 12.1228 17.0622 11.3959 18.2286 11.0184C18.5532 10.9182 18.8834 10.8442 19.2194 10.7963V9.46384C19.2194 9.12403 19.3544 8.79814 19.5947 8.55786C19.835 8.31758 20.1609 8.18259 20.5007 8.18259C20.8405 8.18259 21.1664 8.31758 21.4066 8.55786C21.6469 8.79814 21.7819 9.12403 21.7819 9.46384V10.8476C23.1231 11.0713 24.3527 11.7319 25.2796 12.7267C26.2064 13.7216 26.7785 14.9948 26.9069 16.3484C26.921 16.6752 26.8095 16.995 26.5953 17.2422C26.3812 17.4895 26.0806 17.6455 25.7552 17.6782C25.4297 17.711 25.1041 17.6181 24.845 17.4185C24.5858 17.2189 24.4129 16.9277 24.3615 16.6047C24.2665 15.6776 23.8211 14.8217 23.1162 14.2121C22.4112 13.6024 21.5001 13.285 20.569 13.3247H20.2615C19.8454 13.3214 19.431 13.3789 19.0315 13.4955C18.5944 13.6381 18.1905 13.8674 17.8442 14.1698C17.4978 14.4721 17.216 14.8413 17.0157 15.2551C16.8102 15.6645 16.6938 16.1128 16.674 16.5705C16.674 17.9713 17.1352 19.338 20.5177 19.338C24.7202 19.338 26.924 22.0713 26.924 24.7705C26.9467 25.4739 26.8295 26.1748 26.5791 26.8325C26.3287 27.4903 25.9502 28.0917 25.4654 28.6019C24.9807 29.1121 24.3994 29.5208 23.7553 29.8045C23.1112 30.0882 22.4172 30.241 21.7136 30.2543L21.7819 30.3226Z" fill="#6B79E0"/>
</svg>
