<svg width="41" height="41" viewBox="0 0 41 41" fill="none" xmlns="http://www.w3.org/2000/svg">
<path fill-rule="evenodd" clip-rule="evenodd" d="M5.91702 5.91799C3.41602 8.42241 3.41602 12.4472 3.41602 20.5003C3.41602 28.5534 3.41602 32.5799 5.91702 35.0809C8.42143 37.5837 12.4463 37.5837 20.4993 37.5837C28.5524 37.5837 32.579 37.5837 35.08 35.0809C37.5827 32.5817 37.5827 28.5534 37.5827 20.5003C37.5827 12.4472 37.5827 8.4207 35.08 5.91799C32.5807 3.41699 28.5524 3.41699 20.4993 3.41699C12.4463 3.41699 8.41972 3.41699 5.91702 5.91799ZM23.4889 17.0837C23.4889 17.7909 24.0629 18.3649 24.7702 18.3649H25.9489L22.5101 21.8038C22.4704 21.8436 22.4233 21.8751 22.3714 21.8966C22.3195 21.9182 22.2639 21.9293 22.2077 21.9293C22.1515 21.9293 22.0959 21.9182 22.044 21.8966C21.9921 21.8751 21.945 21.8436 21.9053 21.8038L19.1959 19.0944C18.6353 18.5342 17.8752 18.2195 17.0827 18.2195C16.2902 18.2195 15.5301 18.5342 14.9695 19.0944L11.0523 23.0116C10.9264 23.1289 10.8254 23.2703 10.7554 23.4275C10.6854 23.5847 10.6477 23.7543 10.6447 23.9263C10.6416 24.0984 10.6733 24.2693 10.7377 24.4288C10.8022 24.5883 10.8981 24.7333 11.0197 24.8549C11.1414 24.9766 11.2863 25.0725 11.4459 25.137C11.6054 25.2014 11.7763 25.233 11.9483 25.23C12.1204 25.227 12.29 25.1893 12.4472 25.1193C12.6044 25.0493 12.7458 24.9483 12.8631 24.8224L16.7803 20.9052C16.82 20.8654 16.8671 20.8339 16.919 20.8123C16.9709 20.7908 17.0265 20.7797 17.0827 20.7797C17.1389 20.7797 17.1945 20.7908 17.2464 20.8123C17.2983 20.8339 17.3454 20.8654 17.3851 20.9052L20.0945 23.6146C20.6551 24.1748 21.4152 24.4895 22.2077 24.4895C23.0002 24.4895 23.7603 24.1748 24.3209 23.6146L27.7598 20.1775V21.3545C27.7598 21.6943 27.8948 22.0202 28.135 22.2605C28.3753 22.5008 28.7012 22.6357 29.041 22.6357C29.3808 22.6357 29.7067 22.5008 29.947 22.2605C30.1873 22.0202 30.3223 21.6943 30.3223 21.3545V17.0837C30.3223 16.7438 30.1873 16.418 29.947 16.1777C29.7067 15.9374 29.3808 15.8024 29.041 15.8024H24.7702C24.4304 15.8024 24.1045 15.9374 23.8642 16.1777C23.6239 16.418 23.4889 16.7438 23.4889 17.0837Z" fill="#6B79E0"/>
</svg>
