<svg width="40" height="40" viewBox="0 0 40 40" fill="none" xmlns="http://www.w3.org/2000/svg">
<g clip-path="url(#clip0_3847_13)">
<path d="M28.3346 31.0007C26.4846 31.0007 25.0013 32.484 25.0013 34.334C25.0013 35.218 25.3525 36.0659 25.9776 36.691C26.6027 37.3161 27.4506 37.6673 28.3346 37.6673C29.2187 37.6673 30.0665 37.3161 30.6917 36.691C31.3168 36.0659 31.668 35.218 31.668 34.334C31.668 33.4499 31.3168 32.6021 30.6917 31.977C30.0665 31.3518 29.2187 31.0007 28.3346 31.0007ZM1.66797 4.33398V7.66732H5.0013L11.0013 20.3173L8.73464 24.4007C8.48464 24.8673 8.33464 25.4173 8.33464 26.0007C8.33464 26.8847 8.68582 27.7326 9.31095 28.3577C9.93607 28.9828 10.7839 29.334 11.668 29.334H31.668V26.0007H12.368C12.2575 26.0007 12.1515 25.9568 12.0733 25.8786C11.9952 25.8005 11.9513 25.6945 11.9513 25.584C11.9513 25.5007 11.968 25.434 12.0013 25.384L13.5013 22.6673H25.918C27.168 22.6673 28.268 21.9673 28.8346 20.9507L34.8013 10.1673C34.918 9.90065 35.0013 9.61732 35.0013 9.33398C35.0013 8.89196 34.8257 8.46803 34.5131 8.15547C34.2006 7.84291 33.7767 7.66732 33.3346 7.66732H8.68464L7.11797 4.33398M11.668 31.0007C9.81797 31.0007 8.33464 32.484 8.33464 34.334C8.33464 35.218 8.68582 36.0659 9.31095 36.691C9.93607 37.3161 10.7839 37.6673 11.668 37.6673C12.552 37.6673 13.3999 37.3161 14.025 36.691C14.6501 36.0659 15.0013 35.218 15.0013 34.334C15.0013 33.4499 14.6501 32.6021 14.025 31.977C13.3999 31.3518 12.552 31.0007 11.668 31.0007Z" fill="#6B79E0"/>
</g>
<defs>
<clipPath id="clip0_3847_13">
<rect width="40" height="40" fill="white"/>
</clipPath>
</defs>
</svg>
