<svg width="38" height="38" viewBox="0 0 38 38" fill="none" xmlns="http://www.w3.org/2000/svg">
<path d="M29.5919 10.0704L20.0919 1.09289C19.7982 0.816799 19.4103 0.663086 19.0073 0.663086C18.6042 0.663086 18.2163 0.816799 17.9227 1.09289L8.42269 10.0546C8.26351 10.2022 8.13639 10.381 8.04922 10.5798C7.96206 10.7787 7.91672 10.9933 7.91603 11.2104V18.7471C7.91495 19.0561 8.00432 19.3587 8.17313 19.6175C8.34194 19.8763 8.5828 20.0801 8.86603 20.2037C9.06503 20.2945 9.28067 20.343 9.49936 20.3462C9.90702 20.3446 10.2983 20.1858 10.5919 19.9029L18.7619 12.2079C18.7972 12.1725 18.8391 12.1444 18.8853 12.1252C18.9315 12.106 18.981 12.0961 19.031 12.0961C19.081 12.0961 19.1306 12.106 19.1768 12.1252C19.2229 12.1444 19.2649 12.1725 19.3002 12.2079L27.4069 19.8712C27.6313 20.0883 27.9148 20.2341 28.2219 20.2905C28.529 20.3468 28.8458 20.3111 29.1327 20.1879C29.4159 20.0643 29.6568 19.8605 29.8256 19.6017C29.9944 19.3428 30.0838 19.0402 30.0827 18.7312V11.2104C30.0819 10.9971 30.038 10.7862 29.9536 10.5903C29.8693 10.3944 29.7462 10.2176 29.5919 10.0704Z" fill="#6B79E0"/>
<path d="M29.5918 27.0594L20.0918 18.0978C19.7982 17.8217 19.4103 17.668 19.0073 17.668C18.6042 17.668 18.2163 17.8217 17.9227 18.0978L8.42268 27.0594C8.2635 27.2071 8.13638 27.3859 8.04921 27.5847C7.96205 27.7835 7.91671 27.9982 7.91602 28.2153V35.7519C7.91801 36.0583 8.00883 36.3574 8.17745 36.6132C8.34607 36.8689 8.58526 37.0703 8.86602 37.1928C9.06502 37.2835 9.28066 37.332 9.49935 37.3353C9.90281 37.3274 10.2902 37.1758 10.5918 36.9078L18.7618 29.2128C18.835 29.1449 18.9312 29.1072 19.031 29.1072C19.1308 29.1072 19.227 29.1449 19.3002 29.2128L27.4068 36.8919C27.633 37.1064 27.9174 37.2493 28.2244 37.3028C28.5314 37.3563 28.8473 37.318 29.1327 37.1928C29.4159 37.0692 29.6568 36.8654 29.8256 36.6065C29.9944 36.3477 30.0838 36.0451 30.0827 35.7361V28.2153C30.084 27.9993 30.0412 27.7854 29.9567 27.5866C29.8723 27.3879 29.7482 27.2084 29.5918 27.0594Z" fill="#6B79E0"/>
</svg>
